<?xml version="1.0" encoding="utf-8"?>
<!-- Generator: Adobe Illustrator 27.9.0, SVG Export Plug-In . SVG Version: 6.00 Build 0)  -->
<svg version="1.1" id="Layer_1" xmlns="http://www.w3.org/2000/svg" xmlns:xlink="http://www.w3.org/1999/xlink" x="0px" y="0px"
	 viewBox="0 0 2000 2000" style="enable-background:new 0 0 2000 2000;" xml:space="preserve">
<style type="text/css">
	.st0{fill:#FFFFFF;}
</style>
<path class="st0" d="M321.42,1306.66c37.35,42.76,79.08,80.81,124.37,114.97c70.92,53.48,148.57,94.47,232.21,124.15
	c5.86,2.08,5.92,3.48,2.35,8.16c-20.89,27.42-41.56,55.02-62.05,82.76c-2.93,3.96-5.89,5.16-10.65,4.95
	c-47.43-2.13-94.1-9.5-140.26-20.18c-97.99-22.67-189.84-59.93-273.56-116.22c-49.68-33.4-94.41-72.47-134.03-117.39
	c-2.28-2.58-2.58-5.1-2.38-8.17c2.91-44.03,6.6-87.98,11.33-131.86c4.98-46.2,11.05-92.26,18.55-138.1
	c23.37-143,57.75-283.19,108.35-419.15c29.65-79.67,63.73-157.29,107.04-230.65c7.34-12.42,16.39-22.36,28.29-30.67
	c86.16-60.19,179.54-105.17,280.6-134.02c41.01-11.7,82.77-19.85,125.22-24.37c4.42-0.47,6.88,0.49,8.86,4.85
	c4.76,10.51,10.01,20.81,15.45,30.98c2.25,4.21,2.42,5.68-3.03,6.95c-51.12,11.79-101.06,27.4-149.42,47.86
	c-75.29,31.85-143.59,75.06-206.38,127.18c-11.87,9.85-23.44,20.05-35.12,30.12c-1.25,1.08-2.95,1.87-3.14,3.98
	c2.86,0.86,4.79-1.24,6.93-2.32c60.09-30.44,120.52-60.14,183.36-84.59c72.95-28.39,147.93-49.38,225.21-62.32
	c90.37-15.13,181.39-19.43,272.78-16.5c122.49,3.93,242.08,24.27,357.8,65.51c75.69,26.98,147.89,61.74,219.35,98.15
	c2.09,1.07,4.25,2.02,6.37,3.03c0.69,0.27,1.43,1.12,2-0.02c0.08-0.15-0.73-0.74-1.14-1.13c-19.96-19.13-41.5-36.41-63-53.73
	c-74.22-59.79-157.69-102.09-248.13-131.28c-27.89-9-56.06-16.95-84.46-24.09c-4.15-1.05-4.67-2.13-2.73-5.81
	c5.28-10.02,10.63-20.04,15.11-30.43c2.53-5.87,5.96-6.95,11.8-6.35c33.25,3.46,66.13,8.92,98.57,17.12
	c114.89,29.04,219.13,80.58,315.48,148.9c4.46,3.16,7.91,6.97,10.8,11.6c32.88,52.55,59.57,108.26,83.73,165.19
	c36.64,86.32,66.25,175.06,90.11,265.73c22.44,85.3,39.96,171.62,53.09,258.85c9.85,65.46,17.05,131.2,22.49,197.16
	c1.19,14.52,1.86,29.08,3.06,43.59c0.35,4.21-0.94,7.15-3.7,10.26c-73.33,82.7-162.14,143.55-263.61,186.37
	c-63.71,26.89-129.85,45.53-198.07,56.75c-28.54,4.7-57.21,8.21-86.16,9.26c-3.79,0.14-6.2-0.79-8.55-3.95
	c-21.07-28.36-42.22-56.67-63.66-84.76c-3.62-4.74-1.6-5.42,2.51-6.88c79.94-28.37,154.5-67.03,223-117.13
	c49.1-35.91,94.09-76.39,134.17-122.24c0.57-0.7,1.14-1.39,1.7-2.09c0.61-0.19,1.23-0.37,1.86-0.55l0,0.02
	c-0.48-0.19-0.98-0.58-1.44-0.53c-1.14,0.12-0.08,0.82-0.23,1.23c-1.57-1.74-2.2-0.08-3.03,0.84
	c-16.89,11.67-33.56,23.66-50.69,34.94c-76.34,50.26-158.12,89.24-245.21,117.01c-58.99,18.81-119.19,32.33-180.46,41.35
	c-89.75,13.21-179.92,16.62-270.42,12.59c-118.9-5.3-235.11-25.43-347.35-65.8c-90.31-32.49-174.18-77.31-251.7-133.96
	c-2.92-2.13-5.97-4.08-8.96-6.12c-0.85-0.94-1.49-2.63-3.06-0.81c-0.13-0.43,0.98-1.1-0.18-1.25c-0.45-0.06-0.96,0.33-1.45,0.52
	c0.08-0.12,0.16-0.24,0.23-0.35c-0.08,0.11-0.16,0.22-0.24,0.31c0.6,0.2,1.2,0.41,1.8,0.62
	C320.26,1305.32,320.84,1305.99,321.42,1306.66z M571.43,1039.5c0.41,10.03,0.47,18.36,1.6,26.67
	c6.13,45.16,24.79,83.7,59.72,113.71c55.22,47.43,136.52,43.46,187.09-8.83c27.73-28.67,44.29-62.68,49.35-102.08
	c7.75-60.41-7.59-113.76-50.85-157.69c-54.04-54.87-142.06-53.88-195.6,1.55C588.1,948.69,572.45,991.96,571.43,1039.5z
	 M1428.45,1048.53c-0.03-51-13.49-90.89-41.39-124.7c-27.86-33.76-63.76-53.07-107.98-53.24c-44.23-0.18-80.09,19.04-108.4,52.42
	c-22.72,26.8-36.11,58.05-40.11,92.86c-7.41,64.46,9.85,120.6,59.66,164.1c54.34,47.45,135.55,43.37,186.09-8.21
	C1411.72,1135.63,1427.68,1091.81,1428.45,1048.53z M363.32,523.27c-0.17-0.17-0.31-0.31-0.45-0.45c-0.14,0.28-0.33,0.55-0.4,0.84
	c-0.02,0.1,0.25,0.27,0.4,0.42C363.02,523.8,363.17,523.53,363.32,523.27z"/>
</svg>
