<?xml version="1.0" encoding="utf-8"?>
<!-- Generator: Adobe Illustrator 27.9.0, SVG Export Plug-In . SVG Version: 6.00 Build 0)  -->
<svg version="1.1" id="Layer_1" xmlns="http://www.w3.org/2000/svg" xmlns:xlink="http://www.w3.org/1999/xlink" x="0px" y="0px"
	 viewBox="0 0 2000 2000" style="enable-background:new 0 0 2000 2000;" xml:space="preserve">
<style type="text/css">
	.st0{fill:#FFFCFC;}
</style>
<path class="st0" d="M1276.58,1763.78C1276.34,1763.85,1276.82,1763.71,1276.58,1763.78c0-114.09-0.01-226.23,0-338.36
	c0.01-44.72-6.04-88.4-21.85-130.48c-11.78-31.35-28.67-59.39-55.67-84.57c38.86-6.87,75.32-12.47,111.4-19.88
	c54.63-11.22,107.34-28.44,157.35-53.56c95.87-48.14,167.53-120.09,206.8-220.15c54.74-139.47,68.4-282.75,26.58-428.54
	c-15.73-54.81-43.58-103.84-80.57-147.25c-8.35-9.79-9.75-17.28-5.63-29.84c31.04-94.61,17.36-186.85-16.55-277.88
	c-4.17-11.21-11.96-11.95-21.26-12.13c-42.1-0.83-81.82,10.35-120.77,24.66c-57.37,21.06-110.94,49.82-162.36,82.59
	c-11.38,7.25-21.23,9.64-35.24,5.97c-158.6-41.48-319.02-42.08-478.65-10.66c-56.22,11.07-101.76,8.55-150.86-24.25
	C570,59.83,502.87,33.7,431.01,23.01c-11.75-1.75-20.76-2.98-27.9-3.15L381.1,27.7c-5.49,6.54-9.37,17.76-15.02,35.89
	c-26.23,84.04-27.89,168.68-4.7,253.51c3.41,12.49,1.72,20.64-6.52,30.35c-70.04,82.48-102.55,178.77-104.13,286.32
	c-1.26,85.54,6.98,169.82,34.03,251.39c54,162.87,171.27,256.29,332.43,301.04c50.62,14.06,102.2,23.28,158.65,29.44
	c-15.7,17.16-29.28,31.76-39.12,49.13c-15.38,27.19-25.28,56.31-28.76,87.14c-1.41,12.52-6.6,18.14-17.52,22.58
	c-132.49,53.91-249.67,16.79-326.35-103.59c-36.34-57.05-85.76-96.05-153.28-109.47c-20.94-4.16-42-4.72-62.37,2.7
	c-17.85,6.51-21.01,17.8-9.65,33.12c8.15,10.99,18.67,19.81,30.22,26.86c66.46,40.59,108.4,101.48,137.72,171.19
	c44.99,106.94,128.11,156.78,239.66,165.94c50.52,4.15,100.62-1.17,151.1-12.64c0,69.57-1.25,146.77-1.25,215.21
	c0,0,3.39,216.34,287.97,216.34S1276.58,1763.78,1276.58,1763.78z"/>
</svg>
